<svg 
    width="28" 
    height="28" 
    viewBox="0 0 28 28" 
    fill="none" 
    xmlns="http://www.w3.org/2000/svg">

    <path 
        d="M18.9999 14.9832V12.3332C18.9987 11.1524 18.5797 10.0102 17.8171 9.10882C17.0545 8.2074 15.9975 7.60496 14.8333 7.40817V6.49984C14.8333 6.27882 14.7455 6.06686 14.5892 5.91058C14.4329 5.7543 14.2209 5.6665 13.9999 5.6665C13.7789 5.6665 13.5669 5.7543 13.4107 5.91058C13.2544 6.06686 13.1666 6.27882 13.1666 6.49984V7.40817C12.0024 7.60496 10.9454 8.2074 10.1827 9.10882C9.42012 10.0102 9.00112 11.1524 8.99992 12.3332V14.9832C8.51363 15.1551 8.09242 15.4732 7.79403 15.8939C7.49565 16.3147 7.3347 16.8174 7.33325 17.3332V18.9998C7.33325 19.2209 7.42105 19.4328 7.57733 19.5891C7.73361 19.7454 7.94557 19.8332 8.16659 19.8332H10.7833C10.9752 20.5393 11.3941 21.1627 11.9754 21.6071C12.5567 22.0515 13.2682 22.2923 13.9999 22.2923C14.7317 22.2923 15.4431 22.0515 16.0244 21.6071C16.6058 21.1627 17.0247 20.5393 17.2166 19.8332H19.8333C20.0543 19.8332 20.2662 19.7454 20.4225 19.5891C20.5788 19.4328 20.6666 19.2209 20.6666 18.9998V17.3332C20.6651 16.8174 20.5042 16.3147 20.2058 15.8939C19.9074 15.4732 19.4862 15.1551 18.9999 14.9832V14.9832ZM10.6666 12.3332C10.6666 11.4491 11.0178 10.6013 11.6429 9.97615C12.268 9.35103 13.1159 8.99984 13.9999 8.99984C14.884 8.99984 15.7318 9.35103 16.3569 9.97615C16.9821 10.6013 17.3333 11.4491 17.3333 12.3332V14.8332H10.6666V12.3332ZM13.9999 20.6665C13.7091 20.6647 13.4237 20.5869 13.1723 20.4407C12.9208 20.2945 12.712 20.0851 12.5666 19.8332H15.4333C15.2878 20.0851 15.079 20.2945 14.8276 20.4407C14.5761 20.5869 14.2908 20.6647 13.9999 20.6665ZM18.9999 18.1665H8.99992V17.3332C8.99992 17.1122 9.08772 16.9002 9.244 16.7439C9.40028 16.5876 9.61224 16.4998 9.83325 16.4998H18.1666C18.3876 16.4998 18.5996 16.5876 18.7558 16.7439C18.9121 16.9002 18.9999 17.1122 18.9999 17.3332V18.1665Z" 
        fill="#DE022B"
    />
</svg>
