<svg 
    width="28" 
    height="28" 
    viewBox="0 0 28 28" 
    fill="none" 
    xmlns="http://www.w3.org/2000/svg">

    <path 
        d="M20.5833 14.55C20.4497 14.3979 20.376 14.2024 20.376 14C20.376 13.7976 20.4497 13.6021 20.5833 13.45L21.65 12.25C21.7675 12.1189 21.8405 11.9539 21.8585 11.7787C21.8765 11.6036 21.8385 11.4272 21.75 11.275L20.0833 8.39166C19.9957 8.23959 19.8624 8.11906 19.7023 8.04723C19.5422 7.97541 19.3635 7.95596 19.1917 7.99166L17.625 8.30833C17.4256 8.34952 17.2181 8.31632 17.0416 8.21499C16.865 8.11367 16.7317 7.95123 16.6667 7.75833L16.1583 6.23333C16.1024 6.06781 15.9959 5.92405 15.8539 5.82236C15.7118 5.72068 15.5414 5.66621 15.3667 5.66666H12.0333C11.8516 5.65718 11.6718 5.70743 11.5213 5.80976C11.3708 5.91208 11.258 6.06084 11.2 6.23333L10.7333 7.75833C10.6683 7.95123 10.535 8.11367 10.3584 8.21499C10.1819 8.31632 9.97434 8.34952 9.77499 8.30833L8.16666 7.99166C8.00379 7.96864 7.83774 7.99435 7.68945 8.06553C7.54116 8.13671 7.41725 8.25018 7.33333 8.39166L5.66666 11.275C5.57596 11.4255 5.53518 11.6009 5.55015 11.776C5.56511 11.9511 5.63506 12.117 5.74999 12.25L6.80833 13.45C6.94193 13.6021 7.01561 13.7976 7.01561 14C7.01561 14.2024 6.94193 14.3979 6.80833 14.55L5.74999 15.75C5.63506 15.883 5.56511 16.0489 5.55015 16.224C5.53518 16.3991 5.57596 16.5745 5.66666 16.725L7.33333 19.6083C7.42091 19.7604 7.55426 19.8809 7.71437 19.9528C7.87448 20.0246 8.05318 20.044 8.225 20.0083L9.79166 19.6917C9.99101 19.6505 10.1985 19.6837 10.3751 19.785C10.5516 19.8863 10.685 20.0488 10.75 20.2417L11.2583 21.7667C11.3163 21.9391 11.4292 22.0879 11.5796 22.1902C11.7301 22.2926 11.9099 22.3428 12.0917 22.3333H15.425C15.5997 22.3338 15.7701 22.2793 15.9122 22.1776C16.0542 22.0759 16.1608 21.9322 16.2167 21.7667L16.725 20.2417C16.79 20.0488 16.9234 19.8863 17.0999 19.785C17.2764 19.6837 17.484 19.6505 17.6833 19.6917L19.25 20.0083C19.4218 20.044 19.6005 20.0246 19.7606 19.9528C19.9207 19.8809 20.0541 19.7604 20.1417 19.6083L21.8083 16.725C21.8968 16.5728 21.9348 16.3964 21.9168 16.2212C21.8989 16.0461 21.8259 15.8811 21.7083 15.75L20.5833 14.55ZM19.3417 15.6667L20.0083 16.4167L18.9417 18.2667L17.9583 18.0667C17.3581 17.944 16.7338 18.0459 16.2038 18.3532C15.6738 18.6604 15.2751 19.1515 15.0833 19.7333L14.7667 20.6667H12.6333L12.3333 19.7167C12.1415 19.1349 11.7428 18.6437 11.2128 18.3365C10.6829 18.0293 10.0585 17.9273 9.45833 18.05L8.47499 18.25L7.39166 16.4083L8.05833 15.6583C8.46829 15.2 8.69494 14.6066 8.69494 13.9917C8.69494 13.3767 8.46829 12.7833 8.05833 12.325L7.39166 11.575L8.45833 9.74166L9.44166 9.94166C10.0418 10.0643 10.6662 9.96239 11.1962 9.65516C11.7261 9.34792 12.1249 8.85679 12.3167 8.27499L12.6333 7.33333H14.7667L15.0833 8.28333C15.2751 8.86513 15.6738 9.35626 16.2038 9.66349C16.7338 9.97073 17.3581 10.0727 17.9583 9.94999L18.9417 9.74999L20.0083 11.6L19.3417 12.35C18.9363 12.8073 18.7125 13.3972 18.7125 14.0083C18.7125 14.6194 18.9363 15.2094 19.3417 15.6667ZM13.7 10.6667C13.0407 10.6667 12.3963 10.8622 11.8481 11.2284C11.2999 11.5947 10.8727 12.1153 10.6204 12.7244C10.3681 13.3335 10.3021 14.0037 10.4307 14.6503C10.5593 15.2969 10.8768 15.8908 11.343 16.357C11.8091 16.8232 12.4031 17.1407 13.0497 17.2693C13.6963 17.3979 14.3665 17.3319 14.9756 17.0796C15.5847 16.8273 16.1053 16.4001 16.4716 15.8519C16.8378 15.3037 17.0333 14.6593 17.0333 14C17.0333 13.1159 16.6821 12.2681 16.057 11.643C15.4319 11.0179 14.5841 10.6667 13.7 10.6667ZM13.7 15.6667C13.3704 15.6667 13.0481 15.5689 12.774 15.3858C12.5 15.2026 12.2863 14.9423 12.1602 14.6378C12.034 14.3333 12.001 13.9981 12.0654 13.6748C12.1297 13.3515 12.2884 13.0546 12.5215 12.8215C12.7546 12.5884 13.0515 12.4297 13.3748 12.3654C13.6981 12.301 14.0333 12.334 14.3378 12.4602C14.6423 12.5863 14.9026 12.8 15.0858 13.074C15.2689 13.3481 15.3667 13.6704 15.3667 14C15.3667 14.442 15.1911 14.8659 14.8785 15.1785C14.5659 15.4911 14.142 15.6667 13.7 15.6667Z" 
        fill="#DE022B"
    />
</svg>
