<svg 
    width="28" 
    height="28" 
    viewBox="0 0 28 28" 
    fill="none" 
    xmlns="http://www.w3.org/2000/svg">

    <path 
        d="M8.99992 13.1667C8.8351 13.1667 8.67398 13.2156 8.53694 13.3072C8.3999 13.3988 8.29309 13.5289 8.23002 13.6812C8.16695 13.8334 8.15044 14.001 8.1826 14.1627C8.21475 14.3243 8.29412 14.4728 8.41066 14.5893C8.52721 14.7059 8.67569 14.7852 8.83734 14.8174C8.99899 14.8496 9.16655 14.8331 9.31882 14.77C9.47109 14.7069 9.60124 14.6001 9.69281 14.4631C9.78438 14.326 9.83325 14.1649 9.83325 14.0001C9.83325 13.7791 9.74545 13.5671 9.58917 13.4108C9.43289 13.2545 9.22093 13.1667 8.99992 13.1667ZM18.9999 13.1667C18.8351 13.1667 18.674 13.2156 18.5369 13.3072C18.3999 13.3988 18.2931 13.5289 18.23 13.6812C18.1669 13.8334 18.1504 14.001 18.1826 14.1627C18.2148 14.3243 18.2941 14.4728 18.4107 14.5893C18.5272 14.7059 18.6757 14.7852 18.8373 14.8174C18.999 14.8496 19.1665 14.8331 19.3188 14.77C19.4711 14.7069 19.6012 14.6001 19.6928 14.4631C19.7844 14.326 19.8333 14.1649 19.8333 14.0001C19.8333 13.7791 19.7455 13.5671 19.5892 13.4108C19.4329 13.2545 19.2209 13.1667 18.9999 13.1667ZM20.6666 8.16675H7.33325C6.67021 8.16675 6.03433 8.43014 5.56548 8.89898C5.09664 9.36782 4.83325 10.0037 4.83325 10.6667V17.3334C4.83325 17.9965 5.09664 18.6323 5.56548 19.1012C6.03433 19.57 6.67021 19.8334 7.33325 19.8334H20.6666C21.3296 19.8334 21.9655 19.57 22.4344 19.1012C22.9032 18.6323 23.1666 17.9965 23.1666 17.3334V10.6667C23.1666 10.0037 22.9032 9.36782 22.4344 8.89898C21.9655 8.43014 21.3296 8.16675 20.6666 8.16675ZM21.4999 17.3334C21.4999 17.5544 21.4121 17.7664 21.2558 17.9227C21.0996 18.079 20.8876 18.1667 20.6666 18.1667H7.33325C7.11224 18.1667 6.90028 18.079 6.744 17.9227C6.58772 17.7664 6.49992 17.5544 6.49992 17.3334V10.6667C6.49992 10.4457 6.58772 10.2338 6.744 10.0775C6.90028 9.92121 7.11224 9.83341 7.33325 9.83341H20.6666C20.8876 9.83341 21.0996 9.92121 21.2558 10.0775C21.4121 10.2338 21.4999 10.4457 21.4999 10.6667V17.3334ZM13.9999 11.5001C13.5055 11.5001 13.0221 11.6467 12.611 11.9214C12.1999 12.1961 11.8794 12.5866 11.6902 13.0434C11.501 13.5002 11.4515 14.0029 11.548 14.4878C11.6444 14.9728 11.8825 15.4182 12.2322 15.7678C12.5818 16.1175 13.0272 16.3556 13.5122 16.452C13.9971 16.5485 14.4998 16.499 14.9566 16.3098C15.4134 16.1206 15.8039 15.8001 16.0786 15.389C16.3533 14.9779 16.4999 14.4945 16.4999 14.0001C16.4999 13.337 16.2365 12.7012 15.7677 12.2323C15.2988 11.7635 14.663 11.5001 13.9999 11.5001ZM13.9999 14.8334C13.8351 14.8334 13.674 14.7845 13.5369 14.693C13.3999 14.6014 13.2931 14.4713 13.23 14.319C13.1669 14.1667 13.1504 13.9992 13.1826 13.8375C13.2148 13.6759 13.2941 13.5274 13.4107 13.4108C13.5272 13.2943 13.6757 13.2149 13.8373 13.1828C13.999 13.1506 14.1665 13.1671 14.3188 13.2302C14.4711 13.2933 14.6012 13.4001 14.6928 13.5371C14.7844 13.6741 14.8333 13.8353 14.8333 14.0001C14.8333 14.2211 14.7455 14.4331 14.5892 14.5893C14.4329 14.7456 14.2209 14.8334 13.9999 14.8334Z" 
        fill="#DE022B"
    />
</svg>
