<svg 
    width="28" 
    height="29" 
    viewBox="0 0 28 29" 
    fill="none" 
    xmlns="http://www.w3.org/2000/svg">

    <path 
        fill-rule="evenodd" 
        clip-rule="evenodd" 
        d="M5.00024 14C5.00024 9.0293 9.02954 5 14.0002 5C18.9709 5 23.0002 9.0293 23.0002 14C23.0002 18.9707 18.9709 23 14.0002 23C9.02954 23 5.00024 18.9707 5.00024 14ZM14.0002 6.8C12.0907 6.8 10.2593 7.55857 8.90908 8.90883C7.55881 10.2591 6.80024 12.0904 6.80024 14C6.80024 15.9096 7.55881 17.7409 8.90908 19.0912C10.2593 20.4414 12.0907 21.2 14.0002 21.2C15.9098 21.2 17.7412 20.4414 19.0914 19.0912C20.4417 17.7409 21.2002 15.9096 21.2002 14C21.2002 12.0904 20.4417 10.2591 19.0914 8.90883C17.7412 7.55857 15.9098 6.8 14.0002 6.8Z" 
        fill="#DE022B"
    />

    <path 
        fill-rule="evenodd" 
        clip-rule="evenodd" 
        d="M14.9003 9.5001C14.9003 9.2614 14.8055 9.03248 14.6367 8.8637C14.468 8.69492 14.239 8.6001 14.0003 8.6001C13.7616 8.6001 13.5327 8.69492 13.3639 8.8637C13.1952 9.03248 13.1003 9.2614 13.1003 9.5001V13.1001H9.50034C9.26165 13.1001 9.03273 13.1949 8.86395 13.3637C8.69516 13.5325 8.60034 13.7614 8.60034 14.0001C8.60034 14.2388 8.69516 14.4677 8.86395 14.6365C9.03273 14.8053 9.26165 14.9001 9.50034 14.9001H13.1003V18.5001C13.1003 18.7388 13.1952 18.9677 13.3639 19.1365C13.5327 19.3053 13.7616 19.4001 14.0003 19.4001C14.239 19.4001 14.468 19.3053 14.6367 19.1365C14.8055 18.9677 14.9003 18.7388 14.9003 18.5001V14.9001H18.5003C18.739 14.9001 18.968 14.8053 19.1367 14.6365C19.3055 14.4677 19.4003 14.2388 19.4003 14.0001C19.4003 13.7614 19.3055 13.5325 19.1367 13.3637C18.968 13.1949 18.739 13.1001 18.5003 13.1001H14.9003V9.5001Z" 
        fill="#DE022B"
    />
</svg>
