<svg 
    width="28" 
    height="28" 
    viewBox="0 0 28 28" 
    fill="none" 
    xmlns="http://www.w3.org/2000/svg">

    <path 
        d="M9.00016 13.1666C8.83534 13.1666 8.67423 13.2155 8.53719 13.3071C8.40015 13.3986 8.29334 13.5288 8.23026 13.6811C8.16719 13.8333 8.15069 14.0009 8.18284 14.1625C8.215 14.3242 8.29436 14.4727 8.41091 14.5892C8.52745 14.7058 8.67594 14.7851 8.83759 14.8173C8.99924 14.8494 9.16679 14.8329 9.31907 14.7699C9.47134 14.7068 9.60149 14.6 9.69305 14.4629C9.78462 14.3259 9.8335 14.1648 9.8335 14C9.8335 13.7789 9.7457 13.567 9.58942 13.4107C9.43314 13.2544 9.22118 13.1666 9.00016 13.1666ZM19.0002 13.1666C18.8353 13.1666 18.6742 13.2155 18.5372 13.3071C18.4001 13.3986 18.2933 13.5288 18.2303 13.6811C18.1672 13.8333 18.1507 14.0009 18.1828 14.1625C18.215 14.3242 18.2944 14.4727 18.4109 14.5892C18.5274 14.7058 18.6759 14.7851 18.8376 14.8173C18.9992 14.8494 19.1668 14.8329 19.3191 14.7699C19.4713 14.7068 19.6015 14.6 19.6931 14.4629C19.7846 14.3259 19.8335 14.1648 19.8335 14C19.8335 13.7789 19.7457 13.567 19.5894 13.4107C19.4331 13.2544 19.2212 13.1666 19.0002 13.1666ZM20.6668 8.16663H7.3335C6.67045 8.16663 6.03457 8.43002 5.56573 8.89886C5.09689 9.3677 4.8335 10.0036 4.8335 10.6666V17.3333C4.8335 17.9963 5.09689 18.6322 5.56573 19.1011C6.03457 19.5699 6.67045 19.8333 7.3335 19.8333H20.6668C21.3299 19.8333 21.9658 19.5699 22.4346 19.1011C22.9034 18.6322 23.1668 17.9963 23.1668 17.3333V10.6666C23.1668 10.0036 22.9034 9.3677 22.4346 8.89886C21.9658 8.43002 21.3299 8.16663 20.6668 8.16663ZM21.5002 17.3333C21.5002 17.5543 21.4124 17.7663 21.2561 17.9225C21.0998 18.0788 20.8878 18.1666 20.6668 18.1666H7.3335C7.11248 18.1666 6.90052 18.0788 6.74424 17.9225C6.58796 17.7663 6.50016 17.5543 6.50016 17.3333V10.6666C6.50016 10.4456 6.58796 10.2337 6.74424 10.0774C6.90052 9.92109 7.11248 9.83329 7.3335 9.83329H20.6668C20.8878 9.83329 21.0998 9.92109 21.2561 10.0774C21.4124 10.2337 21.5002 10.4456 21.5002 10.6666V17.3333ZM14.0002 11.5C13.5057 11.5 13.0224 11.6466 12.6112 11.9213C12.2001 12.196 11.8797 12.5864 11.6905 13.0433C11.5012 13.5001 11.4517 14.0027 11.5482 14.4877C11.6447 14.9726 11.8828 15.4181 12.2324 15.7677C12.582 16.1174 13.0275 16.3555 13.5124 16.4519C13.9974 16.5484 14.5001 16.4989 14.9569 16.3097C15.4137 16.1204 15.8041 15.8 16.0788 15.3889C16.3535 14.9778 16.5002 14.4944 16.5002 14C16.5002 13.3369 16.2368 12.701 15.7679 12.2322C15.2991 11.7634 14.6632 11.5 14.0002 11.5ZM14.0002 14.8333C13.8353 14.8333 13.6742 14.7844 13.5372 14.6929C13.4001 14.6013 13.2933 14.4711 13.2303 14.3189C13.1672 14.1666 13.1507 13.999 13.1828 13.8374C13.215 13.6757 13.2944 13.5272 13.4109 13.4107C13.5275 13.2942 13.6759 13.2148 13.8376 13.1826C13.9992 13.1505 14.1668 13.167 14.3191 13.2301C14.4713 13.2931 14.6015 13.3999 14.6931 13.537C14.7846 13.674 14.8335 13.8351 14.8335 14C14.8335 14.221 14.7457 14.4329 14.5894 14.5892C14.4331 14.7455 14.2212 14.8333 14.0002 14.8333Z" 
        fill="#71839B"
    />
</svg>
