<svg 
    width="28" 
    height="28" 
    viewBox="0 0 28 28" 
    fill="none" 
    xmlns="http://www.w3.org/2000/svg">
    
    <path 
        d="M20.6667 10.6667L15.6667 6.28334C15.2084 5.87338 14.615 5.64673 14.0001 5.64673C13.3851 5.64673 12.7918 5.87338 12.3334 6.28334L7.33341 10.6667C7.06872 10.9034 6.8575 11.1938 6.71381 11.5185C6.57012 11.8433 6.49726 12.1949 6.50008 12.55V19.8333C6.50008 20.4964 6.76347 21.1323 7.23231 21.6011C7.70115 22.0699 8.33704 22.3333 9.00008 22.3333H19.0001C19.6631 22.3333 20.299 22.0699 20.7678 21.6011C21.2367 21.1323 21.5001 20.4964 21.5001 19.8333V12.5417C21.5017 12.188 21.4283 11.838 21.2846 11.5147C21.141 11.1915 20.9304 10.9025 20.6667 10.6667ZM15.6667 20.6667H12.3334V16.5C12.3334 16.279 12.4212 16.067 12.5775 15.9107C12.7338 15.7545 12.9457 15.6667 13.1667 15.6667H14.8334C15.0544 15.6667 15.2664 15.7545 15.4227 15.9107C15.5789 16.067 15.6667 16.279 15.6667 16.5V20.6667ZM19.8334 19.8333C19.8334 20.0544 19.7456 20.2663 19.5893 20.4226C19.4331 20.5789 19.2211 20.6667 19.0001 20.6667H17.3334V16.5C17.3334 15.837 17.07 15.2011 16.6012 14.7322C16.1323 14.2634 15.4965 14 14.8334 14H13.1667C12.5037 14 11.8678 14.2634 11.399 14.7322C10.9301 15.2011 10.6667 15.837 10.6667 16.5V20.6667H9.00008C8.77907 20.6667 8.5671 20.5789 8.41082 20.4226C8.25454 20.2663 8.16675 20.0544 8.16675 19.8333V12.5417C8.1669 12.4234 8.19224 12.3064 8.24109 12.1987C8.28995 12.0909 8.36119 11.9948 8.45008 11.9167L13.4501 7.54167C13.6022 7.40807 13.7977 7.33439 14.0001 7.33439C14.2025 7.33439 14.398 7.40807 14.5501 7.54167L19.5501 11.9167C19.639 11.9948 19.7102 12.0909 19.7591 12.1987C19.8079 12.3064 19.8333 12.4234 19.8334 12.5417V19.8333Z" 
        fill="#71839B"
    />
</svg>
