<svg 
    width="28" 
    height="29" 
    viewBox="0 0 28 29" 
    fill="none" 
    xmlns="http://www.w3.org/2000/svg">

    <path 
        d="M12.3333 15.3333H7.33333C7.11232 15.3333 6.90036 15.4211 6.74408 15.5774C6.5878 15.7337 6.5 15.9457 6.5 16.1667V21.1667C6.5 21.3877 6.5878 21.5996 6.74408 21.7559C6.90036 21.9122 7.11232 22 7.33333 22H12.3333C12.5543 22 12.7663 21.9122 12.9226 21.7559C13.0789 21.5996 13.1667 21.3877 13.1667 21.1667V16.1667C13.1667 15.9457 13.0789 15.7337 12.9226 15.5774C12.7663 15.4211 12.5543 15.3333 12.3333 15.3333ZM11.5 20.3333H8.16667V17H11.5V20.3333ZM20.6667 7H15.6667C15.4457 7 15.2337 7.0878 15.0774 7.24408C14.9211 7.40036 14.8333 7.61232 14.8333 7.83333V12.8333C14.8333 13.0543 14.9211 13.2663 15.0774 13.4226C15.2337 13.5789 15.4457 13.6667 15.6667 13.6667H20.6667C20.8877 13.6667 21.0996 13.5789 21.2559 13.4226C21.4122 13.2663 21.5 13.0543 21.5 12.8333V7.83333C21.5 7.61232 21.4122 7.40036 21.2559 7.24408C21.0996 7.0878 20.8877 7 20.6667 7ZM19.8333 12H16.5V8.66667H19.8333V12ZM20.6667 17.8333H19V16.1667C19 15.9457 18.9122 15.7337 18.7559 15.5774C18.5996 15.4211 18.3877 15.3333 18.1667 15.3333C17.9457 15.3333 17.7337 15.4211 17.5774 15.5774C17.4211 15.7337 17.3333 15.9457 17.3333 16.1667V17.8333H15.6667C15.4457 17.8333 15.2337 17.9211 15.0774 18.0774C14.9211 18.2337 14.8333 18.4457 14.8333 18.6667C14.8333 18.8877 14.9211 19.0996 15.0774 19.2559C15.2337 19.4122 15.4457 19.5 15.6667 19.5H17.3333V21.1667C17.3333 21.3877 17.4211 21.5996 17.5774 21.7559C17.7337 21.9122 17.9457 22 18.1667 22C18.3877 22 18.5996 21.9122 18.7559 21.7559C18.9122 21.5996 19 21.3877 19 21.1667V19.5H20.6667C20.8877 19.5 21.0996 19.4122 21.2559 19.2559C21.4122 19.0996 21.5 18.8877 21.5 18.6667C21.5 18.4457 21.4122 18.2337 21.2559 18.0774C21.0996 17.9211 20.8877 17.8333 20.6667 17.8333ZM12.3333 7H7.33333C7.11232 7 6.90036 7.0878 6.74408 7.24408C6.5878 7.40036 6.5 7.61232 6.5 7.83333V12.8333C6.5 13.0543 6.5878 13.2663 6.74408 13.4226C6.90036 13.5789 7.11232 13.6667 7.33333 13.6667H12.3333C12.5543 13.6667 12.7663 13.5789 12.9226 13.4226C13.0789 13.2663 13.1667 13.0543 13.1667 12.8333V7.83333C13.1667 7.61232 13.0789 7.40036 12.9226 7.24408C12.7663 7.0878 12.5543 7 12.3333 7ZM11.5 12H8.16667V8.66667H11.5V12Z" 
        fill="#71839B"
    />
</svg>
