<svg width="28" height="28" viewBox="0 0 28 28" fill="none" xmlns="http://www.w3.org/2000/svg">
<g clip-path="url(#clip0_2064_18292)">
<path d="M14.9284 9.49541C14.627 9.41282 14.3157 9.37235 14.0032 9.37513C13.3534 9.37447 12.7149 9.5449 12.1519 9.86929C11.5888 10.1937 11.1212 10.6606 10.7958 11.2231C10.4705 11.7856 10.299 12.4238 10.2986 13.0736C10.2982 13.7234 10.4688 14.3618 10.7935 14.9247C11.1181 15.4876 11.5852 15.9551 12.1478 16.2803C12.7104 16.6054 13.3487 16.7766 13.9985 16.7768C14.6482 16.7769 15.2866 16.606 15.8494 16.2812C16.4122 15.9564 16.8795 15.4891 17.2044 14.9264" stroke="#71839B" stroke-width="1.5" stroke-linecap="round" stroke-linejoin="round"/>
<path d="M18.6293 11.2254H22.3301M20.4797 9.375V13.0758M14.0032 16.7766C12.8524 16.7709 11.7408 17.1943 10.8854 17.9641C10.03 18.734 9.49226 19.795 9.3772 20.9401C10.7407 21.8432 12.34 22.3249 13.9755 22.3249C15.611 22.3249 17.2102 21.8432 18.5737 20.9401C18.4596 19.8045 17.9298 18.7513 17.0861 17.9827C16.2425 17.2142 15.1445 16.7846 14.0032 16.7766Z" stroke="#71839B" stroke-width="1.5" stroke-linecap="round" stroke-linejoin="round"/>
<path d="M21.8488 16.7766C21.4388 17.948 20.7681 19.0109 19.8874 19.8853C18.8043 20.9693 17.4432 21.7334 15.9538 22.0936C14.4643 22.4537 12.9044 22.3959 11.4458 21.9264C9.98713 21.457 8.68629 20.5941 7.6865 19.4329C6.68672 18.2717 6.02674 16.8571 5.77925 15.3448C5.53176 13.8326 5.70635 12.2814 6.28379 10.8621C6.86123 9.4427 7.81914 8.21019 9.05204 7.30025C10.2849 6.3903 11.745 5.8382 13.2715 5.70474C14.7981 5.57128 16.3318 5.86163 17.7039 6.54383" stroke="#71839B" stroke-width="1.5" stroke-linecap="round" stroke-linejoin="round"/>
</g>
<defs>
<clipPath id="clip0_2064_18292">
<rect width="20" height="20" fill="white" transform="translate(4 4)"/>
</clipPath>
</defs>
</svg>
