<svg 
    width="28" 
    height="28" 
    viewBox="0 0 28 28" 
    fill="none" 
    xmlns="http://www.w3.org/2000/svg">

    <path 
        d="M14.4917 14.8333L12.5751 16.7416C12.497 16.8191 12.435 16.9112 12.3927 17.0128C12.3504 17.1143 12.3286 17.2232 12.3286 17.3333C12.3286 17.4433 12.3504 17.5522 12.3927 17.6537C12.435 17.7553 12.497 17.8475 12.5751 17.9249C12.6526 18.003 12.7447 18.065 12.8463 18.1073C12.9478 18.1496 13.0567 18.1714 13.1667 18.1714C13.2768 18.1714 13.3857 18.1496 13.4872 18.1073C13.5888 18.065 13.6809 18.003 13.7584 17.9249L17.0917 14.5916C17.1676 14.5123 17.2271 14.4189 17.2667 14.3166C17.3501 14.1137 17.3501 13.8861 17.2667 13.6833C17.2271 13.581 17.1676 13.4875 17.0917 13.4083L13.7584 10.0749C13.6807 9.99722 13.5885 9.93559 13.487 9.89354C13.3854 9.85149 13.2766 9.82984 13.1667 9.82984C13.0569 9.82984 12.9481 9.85149 12.8465 9.89354C12.745 9.93559 12.6528 9.99722 12.5751 10.0749C12.4974 10.1526 12.4357 10.2449 12.3937 10.3464C12.3516 10.4479 12.33 10.5567 12.33 10.6666C12.33 10.7765 12.3516 10.8853 12.3937 10.9868C12.4357 11.0883 12.4974 11.1806 12.5751 11.2583L14.4917 13.1666H6.50008C6.27907 13.1666 6.06711 13.2544 5.91083 13.4107C5.75455 13.5669 5.66675 13.7789 5.66675 13.9999C5.66675 14.2209 5.75455 14.4329 5.91083 14.5892C6.06711 14.7455 6.27907 14.8333 6.50008 14.8333H14.4917ZM14.0001 5.66659C12.4427 5.65963 10.9145 6.08926 9.5888 6.90675C8.26316 7.72423 7.19313 8.89684 6.50008 10.2916C6.40063 10.4905 6.38426 10.7208 6.45459 10.9318C6.52491 11.1427 6.67617 11.3171 6.87508 11.4166C7.07399 11.516 7.30427 11.5324 7.51525 11.4621C7.72622 11.3918 7.90063 11.2405 8.00008 11.0416C8.52691 9.97769 9.32828 9.07377 10.3214 8.42324C11.3145 7.77272 12.4633 7.39918 13.649 7.34125C14.8348 7.28331 16.0146 7.54307 17.0663 8.09368C18.1181 8.64429 19.0038 9.46578 19.6318 10.4732C20.2599 11.4807 20.6075 12.6376 20.6387 13.8244C20.67 15.0112 20.3838 16.1848 19.8097 17.2239C19.2356 18.2631 18.3944 19.13 17.373 19.7353C16.3517 20.3405 15.1873 20.662 14.0001 20.6666C12.7575 20.672 11.5385 20.3269 10.4832 19.671C9.42777 19.015 8.57871 18.0748 8.03341 16.9583C7.93396 16.7593 7.75956 16.6081 7.54858 16.5378C7.3376 16.4674 7.10733 16.4838 6.90841 16.5833C6.7095 16.6827 6.55825 16.8571 6.48792 17.0681C6.41759 17.2791 6.43396 17.5093 6.53341 17.7083C7.1941 19.0378 8.19802 20.1668 9.44131 20.9783C10.6846 21.7898 12.1221 22.2544 13.6052 22.3241C15.0882 22.3937 16.563 22.0659 17.8769 21.3745C19.1908 20.6831 20.2961 19.6532 21.0785 18.3914C21.8609 17.1296 22.292 15.6817 22.3272 14.1974C22.3624 12.7131 22.0004 11.2464 21.2786 9.94895C20.5569 8.65148 19.5016 7.57039 18.222 6.81751C16.9423 6.06462 15.4848 5.66728 14.0001 5.66659Z" 
        fill="#71839B"
    />
</svg>
