<svg 
    width="28" 
    height="28" 
    viewBox="0 0 28 28" 
    fill="none" 
    xmlns="http://www.w3.org/2000/svg">

    <path 
        fill-rule="evenodd" 
        clip-rule="evenodd" 
        d="M10.9799 6.50362H17.0203C17.73 6.46734 18.4255 6.70517 18.9533 7.16461C19.481 7.62404 19.7977 8.26732 19.8334 8.95247V20.6637C19.8344 20.8982 19.7329 21.1223 19.5538 21.2808C19.3748 21.4394 19.1348 21.5177 18.8928 21.4966C18.6807 21.4966 18.4746 21.4293 18.306 21.305L14.5696 18.5647C14.2168 18.3092 13.7316 18.3092 13.3788 18.5647L9.67686 21.305C9.51305 21.4259 9.31349 21.493 9.10733 21.4966C8.86535 21.5177 8.62535 21.4394 8.44631 21.2808C8.26726 21.1223 8.16577 20.8982 8.16676 20.6637V8.95247C8.20244 8.26732 8.51912 7.62404 9.04689 7.16461C9.57467 6.70517 10.2702 6.46734 10.9799 6.50362ZM15.3721 17.5734L18.5218 19.9057L18.5045 8.95247C18.4228 8.22628 17.7574 7.69466 17.003 7.75303H10.9626C10.2083 7.69466 9.54279 8.22628 9.46113 8.95247V19.9057L12.6108 17.5734C13.4263 16.9736 14.5566 16.9736 15.3721 17.5734Z" 
        fill="#71839B" 
        stroke="#71839B" 
        stroke-width="0.5"
    />
</svg>
