<svg 
    width="28" 
    height="29" 
    viewBox="0 0 28 29" 
    fill="none" 
    xmlns="http://www.w3.org/2000/svg">

    <path 
        d="M14.3333 6C12.6852 6 11.074 6.48874 9.70358 7.40442C8.33318 8.3201 7.26507 9.62159 6.63434 11.1443C6.00361 12.667 5.83858 14.3426 6.16013 15.9591C6.48167 17.5756 7.27534 19.0605 8.44078 20.2259C9.60622 21.3913 11.0911 22.185 12.7076 22.5065C14.3241 22.8281 15.9996 22.6631 17.5224 22.0323C19.0451 21.4016 20.3466 20.3335 21.2622 18.9631C22.1779 17.5927 22.6667 15.9815 22.6667 14.3333C22.6667 13.239 22.4511 12.1554 22.0323 11.1443C21.6135 10.1333 20.9997 9.2146 20.2259 8.44078C19.4521 7.66696 18.5334 7.05313 17.5224 6.63434C16.5113 6.21555 15.4277 6 14.3333 6V6ZM14.3333 21C13.0148 21 11.7259 20.609 10.6295 19.8765C9.53321 19.1439 8.67872 18.1027 8.17414 16.8846C7.66956 15.6664 7.53753 14.3259 7.79477 13.0327C8.052 11.7395 8.68694 10.5516 9.61929 9.61929C10.5516 8.68694 11.7395 8.052 13.0327 7.79477C14.3259 7.53753 15.6664 7.66955 16.8846 8.17414C18.1027 8.67872 19.1439 9.5332 19.8765 10.6295C20.609 11.7259 21 13.0148 21 14.3333C21 16.1014 20.2976 17.7971 19.0474 19.0474C17.7971 20.2976 16.1014 21 14.3333 21V21ZM15.1667 14.275V10.1667C15.1667 9.94565 15.0789 9.73369 14.9226 9.57741C14.7663 9.42113 14.5544 9.33333 14.3333 9.33333C14.1123 9.33333 13.9004 9.42113 13.7441 9.57741C13.5878 9.73369 13.5 9.94565 13.5 10.1667V14.3333C13.5 14.3333 13.5 14.3917 13.5 14.425C13.4795 14.5944 13.5115 14.766 13.5917 14.9167L14.8417 17.0833C14.9522 17.2756 15.1345 17.4161 15.3486 17.4739C15.5627 17.5318 15.7911 17.5022 15.9833 17.3917C16.1756 17.2812 16.3161 17.0988 16.374 16.8847C16.4318 16.6706 16.4022 16.4423 16.2917 16.25L15.1667 14.275Z" 
        fill="#71839B"
    />
</svg>
