<svg width="28" height="28" viewBox="0 0 28 28" fill="none" xmlns="http://www.w3.org/2000/svg">
<path d="M21.0362 14.8845C20.9026 14.7324 20.8289 14.5369 20.8289 14.3345C20.8289 14.132 20.9026 13.9365 21.0362 13.7845L22.1029 12.5845C22.2204 12.4534 22.2934 12.2884 22.3114 12.1132C22.3293 11.9381 22.2914 11.7617 22.2029 11.6095L20.5362 8.72613C20.4486 8.57407 20.3153 8.45353 20.1552 8.38171C19.9951 8.30988 19.8164 8.29043 19.6445 8.32613L18.0779 8.6428C17.8785 8.68399 17.671 8.65079 17.4944 8.54947C17.3179 8.44814 17.1845 8.2857 17.1195 8.0928L16.6112 6.5678C16.5553 6.40228 16.4488 6.25852 16.3067 6.15683C16.1647 6.05515 15.9942 6.00068 15.8195 6.00113H12.4862C12.3045 5.99165 12.1247 6.04191 11.9742 6.14423C11.8237 6.24655 11.7109 6.39532 11.6529 6.5678L11.1862 8.0928C11.1212 8.2857 10.9879 8.44814 10.8113 8.54947C10.6348 8.65079 10.4272 8.68399 10.2279 8.6428L8.61954 8.32613C8.45667 8.30312 8.29063 8.32882 8.14233 8.4C7.99404 8.47118 7.87013 8.58466 7.78621 8.72613L6.11954 11.6095C6.02884 11.76 5.98806 11.9354 6.00303 12.1105C6.018 12.2856 6.08794 12.4515 6.20288 12.5845L7.26121 13.7845C7.39481 13.9365 7.46849 14.132 7.46849 14.3345C7.46849 14.5369 7.39481 14.7324 7.26121 14.8845L6.20288 16.0845C6.08794 16.2174 6.018 16.3833 6.00303 16.5584C5.98806 16.7336 6.02884 16.9089 6.11954 17.0595L7.78621 19.9428C7.87379 20.0949 8.00714 20.2154 8.16725 20.2872C8.32736 20.3591 8.50606 20.3785 8.67788 20.3428L10.2445 20.0261C10.4439 19.9849 10.6514 20.0181 10.828 20.1195C11.0045 20.2208 11.1379 20.3832 11.2029 20.5761L11.7112 22.1011C11.7692 22.2736 11.882 22.4224 12.0325 22.5247C12.183 22.627 12.3628 22.6773 12.5445 22.6678H15.8779C16.0526 22.6683 16.223 22.6138 16.3651 22.5121C16.5071 22.4104 16.6136 22.2667 16.6695 22.1011L17.1779 20.5761C17.2429 20.3832 17.3762 20.2208 17.5528 20.1195C17.7293 20.0181 17.9369 19.9849 18.1362 20.0261L19.7029 20.3428C19.8747 20.3785 20.0534 20.3591 20.2135 20.2872C20.3736 20.2154 20.507 20.0949 20.5945 19.9428L22.2612 17.0595C22.3497 16.9072 22.3877 16.7309 22.3697 16.5557C22.3517 16.3805 22.2787 16.2156 22.1612 16.0845L21.0362 14.8845ZM19.7945 16.0011L20.4612 16.7511L19.3945 18.6011L18.4112 18.4011C17.811 18.2784 17.1867 18.3804 16.6567 18.6876C16.1267 18.9949 15.728 19.486 15.5362 20.0678L15.2195 21.0011H13.0862L12.7862 20.0511C12.5944 19.4693 12.1957 18.9782 11.6657 18.671C11.1357 18.3637 10.5114 18.2618 9.91121 18.3845L8.92788 18.5845L7.84454 16.7428L8.51121 15.9928C8.92117 15.5344 9.14782 14.9411 9.14782 14.3261C9.14782 13.7112 8.92117 13.1178 8.51121 12.6595L7.84454 11.9095L8.91121 10.0761L9.89454 10.2761C10.4947 10.3988 11.1191 10.2969 11.649 9.98963C12.179 9.6824 12.5778 9.19127 12.7695 8.60947L13.0862 7.6678H15.2195L15.5362 8.6178C15.728 9.1996 16.1267 9.69073 16.6567 9.99797C17.1867 10.3052 17.811 10.4072 18.4112 10.2845L19.3945 10.0845L20.4612 11.9345L19.7945 12.6845C19.3892 13.1418 19.1654 13.7317 19.1654 14.3428C19.1654 14.9539 19.3892 15.5438 19.7945 16.0011V16.0011ZM14.1529 11.0011C13.4936 11.0011 12.8491 11.1966 12.301 11.5629C11.7528 11.9292 11.3256 12.4498 11.0733 13.0589C10.821 13.6679 10.755 14.3382 10.8836 14.9848C11.0122 15.6314 11.3297 16.2253 11.7959 16.6915C12.262 17.1577 12.856 17.4751 13.5026 17.6038C14.1492 17.7324 14.8194 17.6664 15.4285 17.4141C16.0376 17.1618 16.5582 16.7345 16.9244 16.1864C17.2907 15.6382 17.4862 14.9937 17.4862 14.3345C17.4862 13.4504 17.135 12.6026 16.5099 11.9774C15.8848 11.3523 15.0369 11.0011 14.1529 11.0011V11.0011ZM14.1529 16.0011C13.8232 16.0011 13.501 15.9034 13.2269 15.7202C12.9528 15.5371 12.7392 15.2768 12.6131 14.9723C12.4869 14.6677 12.4539 14.3326 12.5182 14.0093C12.5825 13.686 12.7413 13.389 12.9744 13.156C13.2075 12.9229 13.5044 12.7641 13.8277 12.6998C14.151 12.6355 14.4861 12.6685 14.7907 12.7947C15.0952 12.9208 15.3555 13.1344 15.5387 13.4085C15.7218 13.6826 15.8195 14.0048 15.8195 14.3345C15.8195 14.7765 15.6439 15.2004 15.3314 15.513C15.0188 15.8255 14.5949 16.0011 14.1529 16.0011Z" fill="#5374F4"/>
</svg>
