<svg width="28" height="28" viewBox="0 0 28 28" fill="none" xmlns="http://www.w3.org/2000/svg">
<path d="M20.1667 10.6667L15.1667 6.28334C14.7084 5.87338 14.115 5.64673 13.5001 5.64673C12.8851 5.64673 12.2918 5.87338 11.8334 6.28334L6.83341 10.6667C6.56872 10.9034 6.3575 11.1938 6.21381 11.5185C6.07012 11.8433 5.99726 12.1949 6.00008 12.55V19.8333C6.00008 20.4964 6.26347 21.1323 6.73231 21.6011C7.20115 22.0699 7.83704 22.3333 8.50008 22.3333H18.5001C19.1631 22.3333 19.799 22.0699 20.2678 21.6011C20.7367 21.1323 21.0001 20.4964 21.0001 19.8333V12.5417C21.0017 12.188 20.9283 11.838 20.7846 11.5147C20.641 11.1915 20.4304 10.9025 20.1667 10.6667V10.6667ZM15.1667 20.6667H11.8334V16.5C11.8334 16.279 11.9212 16.067 12.0775 15.9107C12.2338 15.7545 12.4457 15.6667 12.6667 15.6667H14.3334C14.5544 15.6667 14.7664 15.7545 14.9227 15.9107C15.0789 16.067 15.1667 16.279 15.1667 16.5V20.6667ZM19.3334 19.8333C19.3334 20.0544 19.2456 20.2663 19.0893 20.4226C18.9331 20.5789 18.7211 20.6667 18.5001 20.6667H16.8334V16.5C16.8334 15.837 16.57 15.2011 16.1012 14.7322C15.6323 14.2634 14.9965 14 14.3334 14H12.6667C12.0037 14 11.3678 14.2634 10.899 14.7322C10.4301 15.2011 10.1667 15.837 10.1667 16.5V20.6667H8.50008C8.27907 20.6667 8.0671 20.5789 7.91082 20.4226C7.75454 20.2663 7.66675 20.0544 7.66675 19.8333V12.5417C7.6669 12.4234 7.69224 12.3064 7.74109 12.1987C7.78995 12.0909 7.86119 11.9948 7.95008 11.9167L12.9501 7.54167C13.1022 7.40807 13.2977 7.33439 13.5001 7.33439C13.7025 7.33439 13.898 7.40807 14.0501 7.54167L19.0501 11.9167C19.139 11.9948 19.2102 12.0909 19.2591 12.1987C19.3079 12.3064 19.3333 12.4234 19.3334 12.5417V19.8333Z" fill="#5374F4"/>
</svg>
